<svg width="50" height="50" viewBox="0 0 50 50" fill="none" xmlns="http://www.w3.org/2000/svg">
<g clip-path="url(#clip0_127_102)">
<path fill-rule="evenodd" clip-rule="evenodd" d="M12.4995 45C13.877 45 14.9995 43.8775 14.9995 42.5C14.9995 41.1225 13.877 40 12.4995 40C11.122 40 9.99952 41.1225 9.99952 42.5C9.99952 43.8775 11.122 45 12.4995 45ZM39.9995 30V17.5C39.9995 16.12 38.8795 15 37.4995 15H14.9995V30H39.9995ZM42.4995 45C43.877 45 44.9995 43.8775 44.9995 42.5C44.9995 41.1225 43.877 40 42.4995 40C41.122 40 39.9995 41.1225 39.9995 42.5C39.9995 43.8775 41.122 45 42.4995 45ZM39.9995 10C42.762 10 44.9995 12.2375 44.9995 15V35.4602C48.342 36.6477 50.6095 40.1027 49.8545 44.0002C49.282 46.9427 46.857 49.3349 43.9095 49.8724C39.147 50.7374 34.9995 47.1025 34.9995 42.5C34.9995 39.24 37.092 36.4927 39.9995 35.4602V35H14.9995V35.4602C18.342 36.6477 20.6095 40.1027 19.8545 44.0002C19.282 46.9427 16.857 49.3349 13.9095 49.8724C9.14702 50.7374 4.99952 47.1025 4.99952 42.5C4.99952 39.24 7.09201 36.4927 9.99952 35.4602V7.5C9.99952 6.12 8.87951 5 7.49952 5H2.49952C1.11951 5 -0.000484467 3.88 -0.000484467 2.5C-0.000484467 1.12 1.11951 0 2.49952 0H9.99952C12.762 0 14.9995 2.2375 14.9995 5V10H39.9995Z" fill="#2A2D38"/>
</g>
<defs>
<clipPath id="clip0_127_102">
<rect width="50" height="50" fill="white" transform="matrix(-1 0 0 1 50 0)"/>
</clipPath>
</defs>
</svg>
