<svg width="55" height="55" viewBox="0 0 55 55" fill="none" xmlns="http://www.w3.org/2000/svg">
<path fill-rule="evenodd" clip-rule="evenodd" d="M4.58331 27.5C4.58331 14.85 14.85 4.58337 27.5 4.58337C40.15 4.58337 50.4166 14.85 50.4166 27.5C50.4166 40.15 40.15 50.4167 27.5 50.4167C14.85 50.4167 4.58331 40.15 4.58331 27.5ZM13.0625 29.1042L21.2896 37.3313C22.1833 38.225 23.65 38.225 24.5208 37.3313L41.9146 19.9375C42.8083 19.0438 42.8083 17.6 41.9146 16.7063C41.0208 15.8125 39.5771 15.8125 38.6833 16.7063L22.9166 32.473L16.2937 25.873C15.4 24.9792 13.9562 24.9792 13.0625 25.873C12.6334 26.3011 12.3922 26.8824 12.3922 27.4886C12.3922 28.0948 12.6334 28.6761 13.0625 29.1042Z" fill="#798FFE"/>
</svg>
