<svg width="156" height="60" viewBox="0 0 430 166" fill="none" xmlns="http://www.w3.org/2000/svg">
<path d="M235.539 162H219.699V132.795C219.699 129.429 219.006 126.954 217.62 125.37C216.3 123.786 214.518 122.994 212.274 122.994C211.086 122.994 209.733 123.39 208.215 124.182C206.763 124.908 205.41 125.964 204.156 127.35C202.902 128.736 201.945 130.353 201.285 132.201V162H185.445V89.73H201.285V118.737C203.199 115.635 205.707 113.259 208.809 111.609C211.977 109.893 215.442 109.035 219.204 109.035C222.768 109.035 225.606 109.629 227.718 110.817C229.896 112.005 231.546 113.589 232.668 115.569C233.79 117.483 234.549 119.595 234.945 121.905C235.341 124.215 235.539 126.492 235.539 128.736V162ZM267.843 162.99C263.421 162.99 259.461 162.264 255.963 160.812C252.531 159.36 249.627 157.38 247.251 154.872C244.875 152.364 243.06 149.493 241.806 146.259C240.618 143.025 240.024 139.626 240.024 136.062C240.024 132.432 240.618 129 241.806 125.766C243.06 122.532 244.875 119.661 247.251 117.153C249.627 114.645 252.531 112.665 255.963 111.213C259.461 109.761 263.421 109.035 267.843 109.035C272.265 109.035 276.192 109.761 279.624 111.213C283.056 112.665 285.96 114.645 288.336 117.153C290.712 119.661 292.527 122.532 293.781 125.766C295.035 129 295.662 132.432 295.662 136.062C295.662 139.626 295.035 143.025 293.781 146.259C292.527 149.493 290.712 152.364 288.336 154.872C285.96 157.38 283.056 159.36 279.624 160.812C276.192 162.264 272.265 162.99 267.843 162.99ZM256.26 136.062C256.26 138.768 256.755 141.144 257.745 143.19C258.801 145.236 260.187 146.82 261.903 147.942C263.619 149.064 265.599 149.625 267.843 149.625C270.021 149.625 271.968 149.064 273.684 147.942C275.466 146.754 276.852 145.137 277.842 143.091C278.832 141.045 279.327 138.702 279.327 136.062C279.327 133.356 278.832 130.98 277.842 128.934C276.852 126.888 275.466 125.304 273.684 124.182C271.968 123.06 270.021 122.499 267.843 122.499C265.599 122.499 263.619 123.06 261.903 124.182C260.187 125.304 258.801 126.888 257.745 128.934C256.755 130.98 256.26 133.356 256.26 136.062ZM320.447 162.99C316.025 162.99 311.702 162.264 307.478 160.812C303.254 159.36 299.69 157.215 296.786 154.377L302.231 144.378C305.399 146.688 308.468 148.437 311.438 149.625C314.474 150.813 317.312 151.407 319.952 151.407C321.998 151.407 323.582 151.077 324.704 150.417C325.826 149.757 326.387 148.734 326.387 147.348C326.387 146.358 326.057 145.599 325.397 145.071C324.737 144.477 323.714 143.949 322.328 143.487C321.008 143.025 319.358 142.53 317.378 142.002C313.418 140.682 310.118 139.395 307.478 138.141C304.838 136.887 302.858 135.369 301.538 133.587C300.218 131.739 299.558 129.363 299.558 126.459C299.558 122.961 300.416 119.925 302.132 117.351C303.914 114.711 306.422 112.665 309.656 111.213C312.89 109.761 316.751 109.035 321.239 109.035C324.803 109.035 328.268 109.596 331.634 110.718C335.066 111.84 338.267 113.721 341.237 116.361L335.099 126.261C332.129 124.215 329.489 122.73 327.179 121.806C324.869 120.882 322.625 120.42 320.447 120.42C319.325 120.42 318.302 120.552 317.378 120.816C316.454 121.08 315.695 121.542 315.101 122.202C314.573 122.796 314.309 123.588 314.309 124.578C314.309 125.568 314.573 126.36 315.101 126.954C315.695 127.548 316.586 128.076 317.774 128.538C319.028 128.934 320.579 129.429 322.427 130.023C326.717 131.277 330.281 132.564 333.119 133.884C335.957 135.138 338.069 136.722 339.455 138.636C340.907 140.484 341.633 142.959 341.633 146.061C341.633 151.341 339.719 155.499 335.891 158.535C332.129 161.505 326.981 162.99 320.447 162.99ZM380.061 159.228C378.609 159.822 376.992 160.416 375.21 161.01C373.494 161.604 371.679 162.066 369.765 162.396C367.851 162.792 365.97 162.99 364.122 162.99C361.482 162.99 359.04 162.561 356.796 161.703C354.618 160.779 352.869 159.294 351.549 157.248C350.295 155.202 349.668 152.496 349.668 149.13V122.004H343.035V110.025H349.668V93.492H365.508V110.025H376.101V122.004H365.508V143.685C365.508 145.401 365.937 146.655 366.795 147.447C367.653 148.173 368.742 148.536 370.062 148.536C371.184 148.536 372.372 148.338 373.626 147.942C374.946 147.546 376.068 147.117 376.992 146.655L380.061 159.228Z" fill="black"/>
<path d="M185.37 86V22.1H206.61C213.39 22.1 219 23.54 223.44 26.42C227.94 29.24 231.3 33.08 233.52 37.94C235.8 42.74 236.94 48.08 236.94 53.96C236.94 60.44 235.71 66.08 233.25 70.88C230.79 75.68 227.28 79.4 222.72 82.04C218.16 84.68 212.79 86 206.61 86H185.37ZM232.35 53.96C232.35 48.62 231.33 43.85 229.29 39.65C227.31 35.45 224.4 32.18 220.56 29.84C216.78 27.44 212.13 26.24 206.61 26.24H189.96V81.86H206.61C212.19 81.86 216.9 80.63 220.74 78.17C224.58 75.71 227.46 72.38 229.38 68.18C231.36 63.92 232.35 59.18 232.35 53.96ZM238.734 72.5C238.734 69.68 239.574 67.25 241.254 65.21C242.934 63.11 245.244 61.49 248.184 60.35C251.124 59.15 254.514 58.55 258.354 58.55C260.754 58.55 263.244 58.76 265.824 59.18C268.404 59.6 270.714 60.17 272.754 60.89V56.48C272.754 52.16 271.494 48.71 268.974 46.13C266.514 43.55 263.094 42.26 258.714 42.26C256.374 42.26 253.944 42.74 251.424 43.7C248.904 44.66 246.324 46.04 243.684 47.84L241.794 44.6C244.854 42.56 247.794 41.03 250.614 40.01C253.494 38.93 256.344 38.39 259.164 38.39C264.744 38.39 269.154 40.04 272.394 43.34C275.634 46.64 277.254 51.14 277.254 56.84V80.06C277.254 80.78 277.404 81.32 277.704 81.68C278.064 82.04 278.574 82.25 279.234 82.31V86C278.694 86.06 278.244 86.09 277.884 86.09C277.524 86.09 277.224 86.09 276.984 86.09C275.844 85.91 274.944 85.43 274.284 84.65C273.684 83.87 273.354 83 273.294 82.04V78.35C271.134 81.05 268.344 83.15 264.924 84.65C261.564 86.15 258.024 86.9 254.304 86.9C251.364 86.9 248.694 86.27 246.294 85.01C243.954 83.75 242.094 82.04 240.714 79.88C239.394 77.66 238.734 75.2 238.734 72.5ZM270.954 76.37C271.554 75.59 272.004 74.84 272.304 74.12C272.604 73.4 272.754 72.74 272.754 72.14V64.4C270.594 63.56 268.344 62.93 266.004 62.51C263.664 62.09 261.264 61.88 258.804 61.88C254.124 61.88 250.314 62.81 247.374 64.67C244.494 66.53 243.054 69.05 243.054 72.23C243.054 74.21 243.564 76.04 244.584 77.72C245.604 79.4 247.014 80.75 248.814 81.77C250.674 82.79 252.804 83.3 255.204 83.3C258.564 83.3 261.654 82.67 264.474 81.41C267.354 80.09 269.514 78.41 270.954 76.37ZM300.304 86.9C296.584 86.9 293.134 86.27 289.954 85.01C286.774 83.75 283.984 81.83 281.584 79.25L283.654 76.1C286.234 78.56 288.844 80.36 291.484 81.5C294.124 82.58 297.004 83.12 300.124 83.12C304.144 83.12 307.384 82.28 309.844 80.6C312.364 78.92 313.624 76.58 313.624 73.58C313.624 71.54 313.024 69.98 311.824 68.9C310.684 67.76 309.004 66.86 306.784 66.2C304.624 65.48 301.984 64.73 298.864 63.95C295.684 63.11 292.984 62.24 290.764 61.34C288.604 60.44 286.984 59.27 285.904 57.83C284.824 56.39 284.284 54.44 284.284 51.98C284.284 48.92 285.034 46.4 286.534 44.42C288.094 42.38 290.164 40.88 292.744 39.92C295.384 38.9 298.294 38.39 301.474 38.39C305.134 38.39 308.314 38.99 311.014 40.19C313.774 41.39 315.874 42.98 317.314 44.96L314.884 47.84C313.384 45.92 311.434 44.51 309.034 43.61C306.634 42.65 303.994 42.17 301.114 42.17C298.954 42.17 296.914 42.47 294.994 43.07C293.074 43.67 291.514 44.66 290.314 46.04C289.174 47.36 288.604 49.16 288.604 51.44C288.604 53.24 289.024 54.65 289.864 55.67C290.764 56.69 292.084 57.53 293.824 58.19C295.564 58.79 297.724 59.45 300.304 60.17C303.964 61.07 307.114 62 309.754 62.96C312.394 63.92 314.434 65.18 315.874 66.74C317.314 68.24 318.034 70.37 318.034 73.13C318.034 77.39 316.414 80.75 313.174 83.21C309.934 85.67 305.644 86.9 300.304 86.9ZM344.091 83.75C343.791 83.87 343.191 84.17 342.291 84.65C341.391 85.13 340.251 85.58 338.871 86C337.491 86.36 335.961 86.54 334.281 86.54C332.661 86.54 331.131 86.24 329.691 85.64C328.311 84.98 327.201 84.02 326.361 82.76C325.521 81.5 325.101 79.97 325.101 78.17V42.89H318.531V39.2H325.101V23.18H329.601V39.2H340.491V42.89H329.601V77.09C329.721 78.83 330.351 80.15 331.491 81.05C332.631 81.89 333.951 82.31 335.451 82.31C337.311 82.31 338.931 82.01 340.311 81.41C341.691 80.75 342.501 80.33 342.741 80.15L344.091 83.75Z" fill="black"/>
<rect x="64" y="64" width="100" height="62" fill="white"/>
<rect x="61" y="52" width="96" height="37" fill="white"/>
<rect x="87" y="34" width="50" height="26" fill="white"/>
<rect x="75" y="113" width="64" height="29" fill="white"/>
<rect x="73" y="129" width="43" height="29" fill="white"/>
<rect x="46" y="114" width="45" height="23" fill="white"/>
<rect x="60" y="52" width="15" height="12" fill="black"/>
<rect x="50" y="64" width="12" height="25" fill="black"/>
<rect x="50" y="77" width="74" height="12" fill="black"/>
<rect x="60" y="77" width="15" height="12" fill="black"/>
<rect x="62.1428" y="89.1429" width="12.4286" height="12.4286" fill="black"/>
<rect x="62" y="77" width="13" height="37" fill="black"/>
<rect x="74.5715" y="101.571" width="12.4286" height="12.4286" fill="black"/>
<rect x="99" y="102" width="25" height="12" fill="black"/>
<rect x="112" y="102" width="12" height="12" fill="black"/>
<rect x="112" y="114" width="37" height="12" fill="black"/>
<rect x="124" y="114" width="13" height="12" fill="black"/>
<rect x="137" y="114" width="12" height="37" fill="black"/>
<rect x="137" y="126" width="37" height="13" fill="black"/>
<rect x="112" y="139" width="37" height="12" fill="black"/>
<rect x="124" y="139" width="13" height="12" fill="black"/>
<rect x="112" y="139" width="12" height="25" fill="black"/>
<rect x="12" y="151" width="112" height="13" fill="black"/>
<rect x="99.4286" y="151.286" width="12.4286" height="12.4286" fill="black"/>
<rect x="87" y="151.286" width="12.4286" height="12.4286" fill="black"/>
<rect x="75" y="139" width="12" height="25" fill="black"/>
<rect x="62" y="126" width="13" height="38" fill="black"/>
<rect x="49.7143" y="151.286" width="12.4286" height="12.4286" fill="black"/>
<rect x="37.2857" y="151.286" width="12.4286" height="12.4286" fill="black"/>
<rect x="24.8571" y="151.286" width="12.4286" height="12.4286" fill="black"/>
<rect x="12.4285" y="151.286" width="12.4286" height="12.4286" fill="black"/>
<rect x="149.143" y="126.429" width="12.4286" height="12.4286" fill="black"/>
<rect x="162" y="62" width="12" height="77" fill="black"/>
<rect x="48" y="102" width="39" height="12" fill="black"/>
<rect x="37" y="114" width="13" height="25" fill="black"/>
<rect x="37.2857" y="126.429" width="12.4286" height="12.4286" fill="black"/>
<rect x="24.8571" y="120.214" width="12.4286" height="12.4286" fill="black"/>
<rect y="120" width="50" height="13" fill="black"/>
<rect y="120.214" width="12.4286" height="12.4286" fill="black"/>
<rect y="108" width="12" height="25" fill="black"/>
<rect x="12" y="139" width="13" height="25" fill="black"/>
<rect x="49.7143" y="126.429" width="12.4286" height="12.4286" fill="black"/>
<rect x="37" y="126" width="38" height="13" fill="black"/>
<rect x="62" y="139" width="25" height="12" fill="black"/>
<rect x="74.5715" y="138.857" width="12.4286" height="12.4286" fill="black"/>
<rect x="75" y="77" width="12" height="12" fill="black"/>
<rect x="87" y="77" width="12" height="12" fill="black"/>
<rect x="99" y="77" width="13" height="12" fill="black"/>
<rect x="112" y="77" width="12" height="12" fill="black"/>
<rect x="74" y="39" width="13" height="13" fill="black"/>
<rect x="85" y="27" width="54" height="12" fill="black"/>
<rect x="99" y="27" width="13" height="12" fill="black"/>
<rect x="112" y="27" width="12" height="12" fill="black"/>
<rect x="124" y="27" width="15" height="12" fill="black"/>
<rect x="87" y="51.8571" width="12.4286" height="12.4286" fill="black"/>
<rect x="124.286" y="51.8571" width="12.4286" height="12.4286" fill="black"/>
<rect x="137" y="39" width="13" height="13" fill="black"/>
<rect x="149" y="52" width="15" height="12" fill="black"/>
<rect x="162" y="62" width="12" height="15" fill="black"/>
<rect x="162" y="77" width="12" height="12" fill="black"/>
<rect x="162" y="89" width="12" height="13" fill="black"/>
<rect x="162" y="102" width="12" height="12" fill="black"/>
<rect x="162" y="114" width="12" height="12" fill="black"/>
</svg>
