<svg width="55" height="55" viewBox="0 0 55 55" fill="none" xmlns="http://www.w3.org/2000/svg">
<g id="icon/action/highlight_off_24px">
<path id="icon/action/highlight_off_24px_2" fill-rule="evenodd" clip-rule="evenodd" d="M27.5 4.58337C14.8271 4.58337 4.58331 14.8271 4.58331 27.5C4.58331 40.173 14.8271 50.4167 27.5 50.4167C40.1729 50.4167 50.4166 40.173 50.4166 27.5C50.4166 14.8271 40.1729 4.58337 27.5 4.58337ZM31.8312 19.9375L27.5 24.2688L23.1687 19.9375C22.7406 19.5084 22.1593 19.2673 21.5531 19.2673C20.9469 19.2673 20.3656 19.5084 19.9375 19.9375C19.0437 20.8313 19.0437 22.275 19.9375 23.1688L24.2687 27.5L19.9375 31.8313C19.0437 32.725 19.0437 34.1688 19.9375 35.0625C20.8312 35.9563 22.275 35.9563 23.1687 35.0625L27.5 30.7313L31.8312 35.0625C32.725 35.9563 34.1687 35.9563 35.0625 35.0625C35.9562 34.1688 35.9562 32.725 35.0625 31.8313L30.7312 27.5L35.0625 23.1688C35.9562 22.275 35.9562 20.8313 35.0625 19.9375C34.1687 19.0667 32.7021 19.0667 31.8312 19.9375ZM9.16665 27.5C9.16665 37.6063 17.3937 45.8334 27.5 45.8334C37.6062 45.8334 45.8333 37.6063 45.8333 27.5C45.8333 17.3938 37.6062 9.16671 27.5 9.16671C17.3937 9.16671 9.16665 17.3938 9.16665 27.5Z" fill="#798FFE"/>
</g>
</svg>
